<?xml version="1.0" encoding="UTF-8" standalone="no"?>
<svg xmlns="http://www.w3.org/2000/svg" height="27.65mm" width="27.65mm" version="1.1" viewBox="0 0 27.647322 27.647322">
 <g transform="translate(3.273 38.82)">
  <path style="paint-order:markers fill stroke" d="m10.55-36.34a11.34 11.34 0 0 0 -11.34 11.34 11.34 11.34 0 0 0 11.34 11.34 11.34 11.34 0 0 0 11.34 -11.34 11.34 11.34 0 0 0 -11.34 -11.34zm-5.704 4.141a1.5 1.5 0 0 1 1.076 0.4532l4.628 4.628 4.628-4.628a1.5 1.5 0 0 1 1.031 -0.4532 1.5 1.5 0 0 1 1.09 2.574l-4.628 4.629 4.628 4.627a1.501 1.501 0 0 1 -2.121 2.123l-4.628-4.629-4.628 4.629a1.501 1.501 0 1 1 -2.121 -2.123l4.628-4.627-4.628-4.629a1.5 1.5 0 0 1 1.045 -2.574z" fill-opacity=".9863" fill="#010101"/>
  <rect stroke-linejoin="round" style="paint-order:markers fill stroke" fill-opacity="0" height="26.65" width="26.65" stroke="#000" stroke-linecap="round" y="-38.32" x="-2.773"/>
 </g>
</svg>
