<?xml version="1.0" encoding="UTF-8" standalone="no"?>
<svg xmlns="http://www.w3.org/2000/svg" height="27.65mm" width="27.65mm" version="1.1" viewBox="0 0 27.646893 27.647408">
 <g transform="translate(-7.343 29.79)">
  <path style="paint-order:markers fill stroke" d="m21.17-29.79a13.82 13.82 0 0 0 -13.83 13.83 13.82 13.82 0 0 0 13.83 13.82 13.82 13.82 0 0 0 13.82 -13.82 13.82 13.82 0 0 0 -13.82 -13.83zm-5.689 3.598h9.762l1.616 1.616v6.664l-1.616 1.616h-6.32v2.527h6.073v3.232h-7.69l-1.616-1.616v-5.759l1.616-1.616h6.319v-3.432h-8.145zm5.689 17.96a1.913 1.913 0 0 1 1.913 1.913 1.913 1.913 0 0 1 -1.913 1.913 1.913 1.913 0 0 1 -1.913 -1.913 1.913 1.913 0 0 1 1.913 -1.913z"/>
 </g>
</svg>
