<?xml version="1.0" encoding="UTF-8" standalone="no"?>
<!-- Created with Inkscape (http://www.inkscape.org/) -->

<svg
   xmlns:osb="http://www.openswatchbook.org/uri/2009/osb"
   xmlns:dc="http://purl.org/dc/elements/1.1/"
   xmlns:cc="http://creativecommons.org/ns#"
   xmlns:rdf="http://www.w3.org/1999/02/22-rdf-syntax-ns#"
   xmlns:svg="http://www.w3.org/2000/svg"
   xmlns="http://www.w3.org/2000/svg"
   xmlns:sodipodi="http://sodipodi.sourceforge.net/DTD/sodipodi-0.dtd"
   xmlns:inkscape="http://www.inkscape.org/namespaces/inkscape"
   width="210mm"
   height="297mm"
   viewBox="0 0 210 297"
   version="1.1"
   id="svg8"
   inkscape:version="0.92.3 (2405546, 2018-03-11)"
   sodipodi:docname="Icon.svg">
  <defs
     id="defs2">
    <linearGradient
       id="linearGradient5984"
       osb:paint="solid">
      <stop
         style="stop-color:#000000;stop-opacity:1;"
         offset="0"
         id="stop5982" />
    </linearGradient>
  </defs>
  <sodipodi:namedview
     id="base"
     pagecolor="#ffffff"
     bordercolor="#666666"
     borderopacity="1.0"
     inkscape:pageopacity="0.0"
     inkscape:pageshadow="2"
     inkscape:zoom="2.8284271"
     inkscape:cx="332.73248"
     inkscape:cy="968.55371"
     inkscape:document-units="mm"
     inkscape:current-layer="layer2"
     showgrid="false"
     showguides="true"
     inkscape:guide-bbox="true"
     inkscape:measure-start="0,0"
     inkscape:measure-end="0,0"
     inkscape:window-width="1920"
     inkscape:window-height="1028"
     inkscape:window-x="-8"
     inkscape:window-y="-8"
     inkscape:window-maximized="1">
    <sodipodi:guide
       position="27.996482,295.53329"
       orientation="1,0"
       id="guide5996"
       inkscape:locked="false" />
    <sodipodi:guide
       position="92.943164,257.49229"
       orientation="1,0"
       id="guide6016"
       inkscape:locked="false" />
    <sodipodi:guide
       position="38.072543,256.96629"
       orientation="0,1"
       id="guide6067"
       inkscape:locked="false" />
  </sodipodi:namedview>
  <metadata
     id="metadata5">
    <rdf:RDF>
      <cc:Work
         rdf:about="">
        <dc:format>image/svg+xml</dc:format>
        <dc:type
           rdf:resource="http://purl.org/dc/dcmitype/StillImage" />
        <dc:title></dc:title>
      </cc:Work>
    </rdf:RDF>
  </metadata>
  <g
     inkscape:label="test"
     inkscape:groupmode="layer"
     id="layer1">
    <ellipse
       style="fill:#ed9292;fill-opacity:1;stroke:none;stroke-width:0.26458332"
       id="path6010"
       cx="29.486614"
       cy="21.998697"
       rx="21.596359"
       ry="13.347284" />
    <path
       style="fill:#020202;fill-opacity:1;stroke:none;stroke-width:0.99999994"
       d="M 105.81445 45.019531 A 43.750001 43.750001 0 0 0 62.064453 88.769531 A 43.750001 43.750001 0 0 0 62.095703 89.660156 A 45.835672 45.835672 0 0 1 105.83594 57.505859 A 45.835672 45.835672 0 0 1 149.52148 89.636719 A 43.750001 43.750001 0 0 0 149.56445 88.769531 A 43.750001 43.750001 0 0 0 105.81445 45.019531 z "
       transform="scale(0.26458333)"
       id="path5990" />
    <path
       style="fill:#7a7a7a;fill-opacity:1;stroke:none;stroke-width:0.99999994"
       d="M 107.67773 78.412109 A 68.571428 42.053571 0 0 0 51.173828 96.648438 A 82.5 42.053571 0 0 1 107.67773 85.199219 A 82.5 42.053571 0 0 1 164.08789 96.636719 A 68.571428 42.053571 0 0 0 107.67773 78.412109 z "
       transform="scale(0.26458333)"
       id="path6001" />
    <circle
       style="fill:#ffffff;fill-opacity:1;stroke:none;stroke-width:0.26458332"
       id="path6008"
       cx="16.687641"
       cy="23.466343"
       r="1.887591" />
    <circle
       r="1.887591"
       cy="23.332708"
       cx="38.837605"
       id="circle6012"
       style="fill:#ffffff;fill-opacity:1;stroke:none;stroke-width:0.26458332" />
    <circle
       style="fill:#ffffff;fill-opacity:1;stroke:none;stroke-width:0.26458332"
       id="circle6014"
       cx="27.879555"
       cy="12.575109"
       r="1.887591" />
  </g>
  <g
     inkscape:groupmode="layer"
     id="layer2"
     inkscape:label="v1">
    <circle
       style="fill:#000000;fill-opacity:1;stroke:none;stroke-width:0.26458332"
       id="path6021"
       cx="92.942978"
       cy="39.552631"
       r="39.221802"
       inkscape:export-xdpi="82.892677"
       inkscape:export-ydpi="82.892677" />
    <circle
       style="fill:none;fill-opacity:1;stroke:#fefefe;stroke-width:3;stroke-miterlimit:4;stroke-dasharray:none;stroke-opacity:1"
       id="path6025"
       cx="93.123383"
       cy="38.724094"
       r="31.150263" />
    <path
       style="fill:#000000;fill-opacity:1;stroke:none;stroke-width:11.33858299;stroke-miterlimit:4;stroke-dasharray:none;stroke-opacity:1"
       d="M 203.23242 145.65234 A 148.23988 148.23988 0 0 0 203.04102 149.49023 A 148.23988 148.23988 0 0 0 351.28125 297.73047 A 148.23988 148.23988 0 0 0 499.51953 149.49023 A 148.23988 148.23988 0 0 0 499.38281 145.65234 L 203.23242 145.65234 z "
       transform="scale(0.26458333)"
       id="rect6027" />
    <ellipse
       style="fill:#ffffff;fill-opacity:1;stroke:none;stroke-width:3.45326662;stroke-miterlimit:4;stroke-dasharray:none;stroke-opacity:1"
       id="path6029"
       cx="93.123383"
       cy="46.17886"
       rx="35.967796"
       ry="9.9777145" />
    <path
       style="fill:#000000;fill-opacity:1;stroke:none;stroke-width:14.26734352;stroke-miterlimit:4;stroke-dasharray:none;stroke-opacity:1"
       d="M 351.96289 152.82227 A 159.27581 38.461047 0 0 0 205.53125 176.17188 A 148.23988 148.23988 0 0 0 216.88086 211.62109 A 159.27581 38.461047 0 0 0 351.96289 229.74609 A 159.27581 38.461047 0 0 0 485.40234 212.2207 A 148.23988 148.23988 0 0 0 497.07812 175.54883 A 159.27581 38.461047 0 0 0 351.96289 152.82227 z "
       transform="scale(0.26458333)"
       id="ellipse6031" />
    <circle
       style="fill:#cbb4e6;fill-opacity:1;stroke:none;stroke-width:3;stroke-miterlimit:4;stroke-dasharray:none;stroke-opacity:1"
       id="path6033"
       cx="93.123383"
       cy="7.9480066"
       r="6.2674704" />
    <circle
       style="fill:#cbb4e6;fill-opacity:1;stroke:none;stroke-width:3;stroke-miterlimit:4;stroke-dasharray:none;stroke-opacity:1"
       id="circle6047"
       cx="70.898392"
       cy="40.227188"
       r="6.2674704" />
    <circle
       r="6.2674704"
       cy="40.227188"
       cx="115.34837"
       id="circle6051"
       style="fill:#cbb4e6;fill-opacity:1;stroke:none;stroke-width:3;stroke-miterlimit:4;stroke-dasharray:none;stroke-opacity:1" />
  </g>
</svg>
