<?xml version="1.0" encoding="UTF-8" standalone="no"?>
<!-- Created with Inkscape (http://www.inkscape.org/) -->

<svg
   xmlns:osb="http://www.openswatchbook.org/uri/2009/osb"
   xmlns:dc="http://purl.org/dc/elements/1.1/"
   xmlns:cc="http://creativecommons.org/ns#"
   xmlns:rdf="http://www.w3.org/1999/02/22-rdf-syntax-ns#"
   xmlns:svg="http://www.w3.org/2000/svg"
   xmlns="http://www.w3.org/2000/svg"
   xmlns:xlink="http://www.w3.org/1999/xlink"
   xmlns:sodipodi="http://sodipodi.sourceforge.net/DTD/sodipodi-0.dtd"
   xmlns:inkscape="http://www.inkscape.org/namespaces/inkscape"
   width="210mm"
   height="297mm"
   viewBox="0 0 210 297"
   version="1.1"
   id="svg8"
   inkscape:version="0.92.1 r15371"
   sodipodi:docname="icons.svg"
   inkscape:export-filename="A:\dev\tools\Irseny\resources\icons\icons.svg.png"
   inkscape:export-xdpi="38"
   inkscape:export-ydpi="38">
  <defs
     id="defs2">
    <inkscape:path-effect
       effect="mirror_symmetry"
       start_point="105,0"
       end_point="105,297"
       center_point="105,148.5"
       id="path-effect4628"
       is_visible="true"
       mode="vertical"
       discard_orig_path="false"
       fuse_paths="false"
       oposite_fuse="false" />
    <inkscape:path-effect
       effect="mirror_symmetry"
       start_point="98.746379,48.526678"
       end_point="98.746379,48.526678"
       center_point="98.746379,48.526678"
       id="path-effect4626"
       is_visible="true"
       mode="vertical"
       discard_orig_path="false"
       fuse_paths="false"
       oposite_fuse="false" />
    <inkscape:path-effect
       effect="mirror_symmetry"
       start_point="105,0"
       end_point="105,297"
       center_point="105,148.5"
       id="path-effect4618"
       is_visible="true"
       mode="vertical"
       discard_orig_path="false"
       fuse_paths="false"
       oposite_fuse="false" />
    <inkscape:path-effect
       oposite_fuse="false"
       fuse_paths="false"
       discard_orig_path="false"
       mode="vertical"
       is_visible="true"
       id="path-effect4609"
       center_point="105,148.5"
       end_point="105,297"
       start_point="105,0"
       effect="mirror_symmetry" />
    <inkscape:path-effect
       effect="mirror_symmetry"
       start_point="105,0"
       end_point="105,297"
       center_point="105,148.5"
       id="path-effect4604"
       is_visible="true"
       mode="vertical"
       discard_orig_path="false"
       fuse_paths="false"
       oposite_fuse="false" />
    <inkscape:path-effect
       effect="mirror_symmetry"
       start_point="105,0"
       end_point="105,297"
       center_point="105,148.5"
       id="path-effect4602"
       is_visible="true"
       mode="vertical"
       discard_orig_path="false"
       fuse_paths="false"
       oposite_fuse="false" />
    <inkscape:path-effect
       effect="mirror_symmetry"
       start_point="105,0"
       end_point="105,297"
       center_point="105,148.5"
       id="path-effect4600"
       is_visible="true"
       mode="vertical"
       discard_orig_path="false"
       fuse_paths="false"
       oposite_fuse="false" />
    <inkscape:path-effect
       oposite_fuse="false"
       fuse_paths="false"
       discard_orig_path="false"
       mode="vertical"
       is_visible="true"
       id="path-effect4596"
       center_point="105,148.5"
       end_point="105,297"
       start_point="105,0"
       effect="mirror_symmetry" />
    <linearGradient
       id="linearGradient4592"
       inkscape:collect="always">
      <stop
         id="stop4586"
         offset="0"
         style="stop-color:#6fbdd1;stop-opacity:1" />
      <stop
         style="stop-color:#fbfafd;stop-opacity:1"
         offset="0.52131665"
         id="stop4588" />
      <stop
         id="stop4590"
         offset="1"
         style="stop-color:#6dbbd3;stop-opacity:1" />
    </linearGradient>
    <inkscape:path-effect
       effect="mirror_symmetry"
       start_point="105,0"
       end_point="105,297"
       center_point="105,148.5"
       id="path-effect4584"
       is_visible="true"
       mode="vertical"
       discard_orig_path="false"
       fuse_paths="false"
       oposite_fuse="false" />
    <inkscape:path-effect
       oposite_fuse="false"
       fuse_paths="false"
       discard_orig_path="false"
       mode="vertical"
       is_visible="true"
       id="path-effect4580"
       center_point="105,148.5"
       end_point="105,297"
       start_point="105,0"
       effect="mirror_symmetry" />
    <inkscape:path-effect
       effect="mirror_symmetry"
       start_point="105,0"
       end_point="105,297"
       center_point="105,148.5"
       id="path-effect4576"
       is_visible="true"
       mode="vertical"
       discard_orig_path="false"
       fuse_paths="false"
       oposite_fuse="false" />
    <linearGradient
       inkscape:collect="always"
       id="linearGradient4563">
      <stop
         style="stop-color:#cbb4e6;stop-opacity:1"
         offset="0"
         id="stop4559" />
      <stop
         id="stop4567"
         offset="0.51278019"
         style="stop-color:#ffffff;stop-opacity:1" />
      <stop
         style="stop-color:#cbb4e6;stop-opacity:1"
         offset="1"
         id="stop4561" />
    </linearGradient>
    <linearGradient
       id="linearGradient5984"
       osb:paint="solid">
      <stop
         style="stop-color:#000000;stop-opacity:1;"
         offset="0"
         id="stop5982" />
    </linearGradient>
    <linearGradient
       inkscape:collect="always"
       xlink:href="#linearGradient4563"
       id="linearGradient4571"
       gradientUnits="userSpaceOnUse"
       x1="75.315826"
       y1="55.575699"
       x2="83.755737"
       y2="47.704346"
       gradientTransform="translate(-177.07892,12.711766)" />
    <linearGradient
       inkscape:collect="always"
       xlink:href="#linearGradient4592"
       id="linearGradient4603"
       gradientUnits="userSpaceOnUse"
       gradientTransform="matrix(1,0,0,1.1065457,39.466484,-0.11159516)"
       x1="81.009727"
       y1="42.326069"
       x2="86.368088"
       y2="51.156536" />
    <linearGradient
       inkscape:collect="always"
       xlink:href="#linearGradient4592"
       id="linearGradient4598"
       gradientUnits="userSpaceOnUse"
       gradientTransform="matrix(-1,0,0,1.1065457,170.53351,-0.11159516)"
       x1="76.706688"
       y1="53.177208"
       x2="82.906952"
       y2="43.860081" />
  </defs>
  <sodipodi:namedview
     id="base"
     pagecolor="#f4e1f5"
     bordercolor="#666666"
     borderopacity="1.0"
     inkscape:pageopacity="0"
     inkscape:pageshadow="2"
     inkscape:zoom="1"
     inkscape:cx="225.34707"
     inkscape:cy="1144.2418"
     inkscape:document-units="mm"
     inkscape:current-layer="layer2"
     showgrid="false"
     showguides="true"
     inkscape:guide-bbox="true"
     inkscape:measure-start="351.432,938.331"
     inkscape:measure-end="333.401,937.977"
     inkscape:window-width="1882"
     inkscape:window-height="1056"
     inkscape:window-x="38"
     inkscape:window-y="0"
     inkscape:window-maximized="1"
     inkscape:snap-others="true"
     inkscape:snap-nodes="false">
    <sodipodi:guide
       position="27.996482,295.53329"
       orientation="1,0"
       id="guide5996"
       inkscape:locked="false" />
    <sodipodi:guide
       position="92.943164,257.49229"
       orientation="1,0"
       id="guide6016"
       inkscape:locked="false" />
    <sodipodi:guide
       position="179.58173,144.50261"
       orientation="1,0"
       id="guide1003"
       inkscape:locked="false" />
    <sodipodi:guide
       position="182.62192,181.85019"
       orientation="0,1"
       id="guide1006"
       inkscape:locked="false" />
    <sodipodi:guide
       position="168.3798,153.22562"
       orientation="1,0"
       id="guide70"
       inkscape:locked="false" />
    <sodipodi:guide
       position="172.08649,93.719728"
       orientation="0,1"
       id="guide4633"
       inkscape:locked="false" />
    <sodipodi:guide
       position="168.5435,94.9475"
       orientation="0,1"
       id="guide4635"
       inkscape:locked="false" />
  </sodipodi:namedview>
  <metadata
     id="metadata5">
    <rdf:RDF>
      <cc:Work
         rdf:about="">
        <dc:format>image/svg+xml</dc:format>
        <dc:type
           rdf:resource="http://purl.org/dc/dcmitype/StillImage" />
        <dc:title />
      </cc:Work>
    </rdf:RDF>
  </metadata>
  <g
     inkscape:label="test"
     inkscape:groupmode="layer"
     id="layer1" />
  <g
     inkscape:groupmode="layer"
     id="layer2"
     inkscape:label="v1">
    <circle
       style="fill:#000000;fill-opacity:1;stroke:none;stroke-width:0.26458332"
       id="path6021"
       cx="105"
       cy="39.552631"
       r="39.221802"
       inkscape:export-xdpi="20.719999"
       inkscape:export-ydpi="20.719999"
       inkscape:export-filename="/home/creak/dev/tools/Irseny/project/Irseny.Webfront/favicon.ico.png" />
    <path
       style="fill:none;fill-opacity:1;stroke:#fefefe;stroke-width:3;stroke-miterlimit:4;stroke-dasharray:none;stroke-opacity:1"
       id="path6025"
       r="31.150263"
       cy="38.724094"
       cx="93.123383" />
    <circle
       inkscape:export-filename="/home/creak/dev/tools/Irseny/project/Irseny.Webfront/favicon.ico.png"
       inkscape:export-ydpi="38"
       inkscape:export-xdpi="38"
       r="31.681177"
       cy="39.552631"
       cx="105"
       id="circle4570"
       style="fill:none;fill-opacity:1;stroke:#ffffff;stroke-width:3.79999995;stroke-miterlimit:4;stroke-dasharray:none;stroke-opacity:1" />
    <circle
       style="fill:none;fill-opacity:1;stroke:#000000;stroke-width:8;stroke-miterlimit:4;stroke-dasharray:none;stroke-opacity:1;paint-order:markers stroke fill"
       id="path4607"
       cx="105.1804"
       cy="10.593839"
       r="6.2674704" />
    <circle
       style="fill:#ccb5e7;fill-opacity:1;stroke:none;stroke-width:3;stroke-miterlimit:4;stroke-dasharray:none;stroke-opacity:1"
       id="path6033"
       cx="105.1804"
       cy="10.593839"
       r="6.2674704" />
    <path
       style="fill:#000000;fill-opacity:1;stroke:none;stroke-width:3;stroke-miterlimit:4;stroke-dasharray:none;stroke-opacity:1"
       d="m 65.828933,38.537181 a 39.221801,39.221801 0 0 0 -0.05064,1.015442 39.221801,39.221801 0 0 0 39.221887,39.221896 39.221801,39.221801 0 0 0 39.22138,-39.221896 39.221801,39.221801 0 0 0 -0.0362,-1.015442 z"
       id="rect6027"
       inkscape:connector-curvature="0" />
    <path
       style="opacity:1;fill:url(#linearGradient4603);fill-opacity:1;stroke:none;stroke-width:5.25962353;stroke-linecap:round;stroke-linejoin:round;stroke-miterlimit:4;stroke-dasharray:none;stroke-dashoffset:0;stroke-opacity:1;paint-order:markers stroke fill"
       d="m 112.17121,46.671802 h 19.33214 c 0.32244,0 0.58202,0.287235 0.58202,0.644027 v 11.833374 c 0,0.356792 -0.25958,0.644027 -0.58202,0.644027 h -19.33214 c -0.32244,0 -0.58202,-0.287235 -0.58202,-0.644027 V 47.315829 c 0,-0.356792 0.25958,-0.644027 0.58202,-0.644027 z m -14.34242,0 H 78.49665 c -0.32244,0 -0.58202,0.287235 -0.58202,0.644027 v 11.833374 c 0,0.356792 0.25958,0.644027 0.58202,0.644027 h 19.33214 c 0.32244,0 0.58202,-0.287235 0.58202,-0.644027 V 47.315829 c 0,-0.356792 -0.25958,-0.644027 -0.58202,-0.644027 z"
       id="rect4601"
       inkscape:original-d="m 112.17121,46.671802 h 19.33214 c 0.32244,0 0.58202,0.287235 0.58202,0.644027 v 11.833374 c 0,0.356792 -0.25958,0.644027 -0.58202,0.644027 h -19.33214 c -0.32244,0 -0.58202,-0.287235 -0.58202,-0.644027 V 47.315829 c 0,-0.356792 0.25958,-0.644027 0.58202,-0.644027 z"
       inkscape:path-effect="#path-effect4576"
       inkscape:connector-curvature="0" />
    <path
       id="path4594"
       d="m 97.828793,46.671802 h -19.33214 c -0.32244,0 -0.58202,0.287235 -0.58202,0.644027 v 11.833374 c 0,0.356792 0.25958,0.644027 0.58202,0.644027 h 19.33214 c 0.32244,0 0.58202,-0.287235 0.58202,-0.644027 V 47.315829 c 0,-0.356792 -0.25958,-0.644027 -0.58202,-0.644027 z"
       style="opacity:1;fill:url(#linearGradient4598);fill-opacity:1;stroke:none;stroke-width:5.25962353;stroke-linecap:round;stroke-linejoin:round;stroke-miterlimit:4;stroke-dasharray:none;stroke-dashoffset:0;stroke-opacity:1;paint-order:markers stroke fill"
       inkscape:connector-curvature="0" />
    <path
       style="fill:#ffffff;fill-opacity:1;stroke:none;stroke-width:3.45326662;stroke-miterlimit:4;stroke-dasharray:none;stroke-opacity:1"
       d="m 105.18054,36.200892 a 35.967797,9.9777144 0 0 0 -35.801952,9.058359 42.141724,10.176152 0 0 1 35.801952,-4.825026 42.141724,10.176152 0 0 1 35.79419,4.848281 35.967797,9.9777144 0 0 0 -35.79419,-9.081614 z"
       id="path6029"
       inkscape:connector-curvature="0" />
    <path
       style="opacity:1;fill:#000000;fill-opacity:1;stroke:none;stroke-width:8;stroke-linecap:butt;stroke-linejoin:round;stroke-miterlimit:4;stroke-dasharray:none;stroke-dashoffset:0;stroke-opacity:1;paint-order:markers fill stroke"
       d="m 83.384306,43.486023 h 17.224514 c 0.32244,0 0.58201,0.259578 0.58201,0.582014 v 5.84743 c 0,0.322436 -0.25957,0.582014 -0.58201,0.582014 H 83.384306 c -0.322436,0 -0.582014,-0.259578 -0.582014,-0.582014 v -5.84743 c 0,-0.322436 0.259578,-0.582014 0.582014,-0.582014 z m 43.231384,0 h -17.22451 c -0.32244,0 -0.58201,0.259578 -0.58201,0.582014 v 5.84743 c 0,0.322436 0.25957,0.582014 0.58201,0.582014 h 17.22451 c 0.32244,0 0.58202,-0.259578 0.58202,-0.582014 v -5.84743 c 0,-0.322436 -0.25958,-0.582014 -0.58202,-0.582014 z"
       id="rect4615"
       inkscape:path-effect="#path-effect4618"
       inkscape:original-d="m 83.384306,43.486023 h 17.224514 c 0.32244,0 0.58201,0.259578 0.58201,0.582014 v 5.84743 c 0,0.322436 -0.25957,0.582014 -0.58201,0.582014 H 83.384306 c -0.322436,0 -0.582014,-0.259578 -0.582014,-0.582014 v -5.84743 c 0,-0.322436 0.259578,-0.582014 0.582014,-0.582014 z" />
    <path
       style="fill:none;stroke:#181818;stroke-width:2;stroke-linecap:round;stroke-linejoin:miter;stroke-miterlimit:4;stroke-dasharray:none;stroke-opacity:1"
       d="m 87.187962,48.526678 h 10.896959 m 24.727119,0 h -10.89696"
       id="path4624"
       inkscape:connector-curvature="0"
       inkscape:path-effect="#path-effect4628"
       inkscape:original-d="m 87.187962,48.526678 10.896959,0"
       sodipodi:nodetypes="cc" />
    <path
       id="circle4579"
       style="fill:none;fill-opacity:1;stroke:#000000;stroke-width:8;stroke-miterlimit:4;stroke-dasharray:none;stroke-opacity:1;paint-order:markers stroke fill"
       inkscape:path-effect="#path-effect4602"
       sodipodi:type="arc"
       sodipodi:cx="82.955414"
       sodipodi:cy="40.227188"
       sodipodi:rx="6.2674704"
       sodipodi:ry="6.2674704"
       d="m 89.222884,40.227188 c 0,3.461428 -2.806042,6.26747 -6.26747,6.26747 -3.461428,0 -6.267471,-2.806042 -6.267471,-6.26747 0,-3.461428 2.806043,-6.26747 6.267471,-6.26747 3.461428,0 6.26747,2.806042 6.26747,6.26747 z m 31.554236,0 c 0,3.461428 2.80604,6.26747 6.26747,6.26747 3.46142,0 6.26747,-2.806042 6.26747,-6.26747 0,-3.461428 -2.80605,-6.26747 -6.26747,-6.26747 -3.46143,0 -6.26747,2.806042 -6.26747,6.26747 z" />
    <path
       style="opacity:1;fill:#c9b2e4;fill-opacity:1;stroke:none;stroke-width:3;stroke-miterlimit:4;stroke-dasharray:none;stroke-opacity:1"
       id="circle6047"
       inkscape:path-effect="#path-effect4604"
       sodipodi:type="arc"
       sodipodi:cx="82.955414"
       sodipodi:cy="40.227188"
       sodipodi:rx="6.2674704"
       sodipodi:ry="6.2674704"
       d="m 89.222884,40.227188 c 0,3.461428 -2.806042,6.26747 -6.26747,6.26747 -3.461428,0 -6.267471,-2.806042 -6.267471,-6.26747 0,-3.461428 2.806043,-6.26747 6.267471,-6.26747 3.461428,0 6.26747,2.806042 6.26747,6.26747 z m 31.554236,0 c 0,3.461428 2.80604,6.26747 6.26747,6.26747 3.46142,0 6.26747,-2.806042 6.26747,-6.26747 0,-3.461428 -2.80605,-6.26747 -6.26747,-6.26747 -3.46143,0 -6.26747,2.806042 -6.26747,6.26747 z" />
    <path
       style="fill:#ffffff;fill-opacity:1;stroke:none;stroke-width:3;stroke-miterlimit:4;stroke-dasharray:none;stroke-opacity:1"
       d="m 84.6627,107.84713 h 41.73313 v 41.73313 H 84.6627 Z"
       id="rect60"
       inkscape:export-xdpi="38.950001"
       inkscape:export-ydpi="38.950001"
       inkscape:connector-curvature="0" />
    <path
       inkscape:connector-curvature="0"
       id="path920"
       d="m 85.16714,128.7137 h 40.72425"
       style="fill:none;stroke:#ff0121;stroke-width:0.98932737;stroke-linecap:round;stroke-linejoin:miter;stroke-miterlimit:4;stroke-dasharray:none;stroke-opacity:1" />
    <path
       style="fill:none;stroke:#0118ff;stroke-width:0.98903513;stroke-linecap:round;stroke-linejoin:miter;stroke-miterlimit:4;stroke-dasharray:none;stroke-opacity:1"
       d="M 105.52926,149.06379 V 108.3636"
       id="path916"
       inkscape:connector-curvature="0" />
    <rect
       style="fill:#c7b095;fill-opacity:1;stroke:none;stroke-width:2.0389595;stroke-miterlimit:4;stroke-dasharray:none;stroke-opacity:1"
       id="rect873"
       width="17.727083"
       height="7.4186096"
       x="96.665726"
       y="116.73107" />
    <ellipse
       style="fill:#c7b095;fill-opacity:1;stroke:none;stroke-width:3;stroke-miterlimit:4;stroke-dasharray:none;stroke-opacity:1"
       id="path878"
       cx="105.52927"
       cy="116.72739"
       rx="8.8635416"
       ry="6.0192709" />
    <path
       style="fill:#dfc7a9;fill-opacity:1;stroke:none;stroke-width:3;stroke-miterlimit:4;stroke-dasharray:none;stroke-opacity:1"
       d="m 115.64867,128.7137 a 10.119408,10.119408 0 0 1 -10.11941,10.1194 10.119408,10.119408 0 0 1 -10.11941,-10.1194 10.119408,10.119408 0 0 1 10.11941,-10.11941 10.119408,10.119408 0 0 1 10.11941,10.11941 z"
       id="path871"
       inkscape:connector-curvature="0" />
    <rect
       style="fill:#040404;fill-opacity:1;stroke:none;stroke-width:0.5;stroke-miterlimit:4;stroke-dasharray:none;stroke-opacity:1"
       id="rect891"
       width="1.1008047"
       height="2.7652326"
       x="99.954834"
       y="111.78667" />
    <rect
       y="120.52619"
       x="104.81517"
       height="3.3264985"
       width="1.4282099"
       id="rect893"
       style="fill:#040404;fill-opacity:1;stroke:none;stroke-width:0.62465286;stroke-miterlimit:4;stroke-dasharray:none;stroke-opacity:1" />
    <rect
       style="fill:#040404;fill-opacity:1;stroke:none;stroke-width:0.5;stroke-miterlimit:4;stroke-dasharray:none;stroke-opacity:1"
       id="rect895"
       width="1.1008047"
       height="2.7652326"
       x="110.02553"
       y="111.78667" />
    <path
       style="fill:none;fill-opacity:1;stroke:#000000;stroke-width:0.5;stroke-miterlimit:4;stroke-dasharray:none;stroke-opacity:1"
       d="m 105.52932,110.70814 a 8.8635416,6.0192708 0 0 0 -8.86354,6.01927 8.8635416,6.0192708 0 0 0 0,0.004 v 7.10345 a 10.119408,10.119408 0 0 0 -1.25573,4.87928 10.119408,10.119408 0 0 0 10.11927,10.11928 10.119408,10.119408 0 0 0 10.11929,-10.11928 10.119408,10.119408 0 0 0 -1.25574,-4.86068 v -7.12203 a 8.8635416,6.0192708 0 0 0 0,-0.004 8.8635416,6.0192708 0 0 0 -8.86355,-6.01927 z"
       id="rect905"
       inkscape:connector-curvature="0" />
    <circle
       style="fill:#080000;fill-opacity:1;stroke:none;stroke-width:0.5;stroke-miterlimit:4;stroke-dasharray:none;stroke-opacity:1"
       id="path914"
       cx="105.52927"
       cy="128.7137"
       r="1.0056016" />
    <path
       id="path918"
       d="m 84.6627,165.52633 h 41.73313 v 41.73318 H 84.6627 Z"
       style="fill:#ffffff;fill-opacity:1;stroke:none;stroke-width:3;stroke-miterlimit:4;stroke-dasharray:none;stroke-opacity:1"
       inkscape:connector-curvature="0"
       inkscape:export-xdpi="38.950001"
       inkscape:export-ydpi="38.950001" />
    <path
       inkscape:connector-curvature="0"
       id="path936"
       d="M 105.52926,206.74305 V 166.0428"
       style="fill:none;stroke:#18ff01;stroke-width:0.98903513;stroke-linecap:round;stroke-linejoin:miter;stroke-miterlimit:4;stroke-dasharray:none;stroke-opacity:1" />
    <path
       style="fill:none;stroke:#0118ff;stroke-width:0.98903513;stroke-linecap:round;stroke-linejoin:miter;stroke-miterlimit:4;stroke-dasharray:none;stroke-opacity:1"
       d="m 85.17914,186.39292 h 40.70024"
       id="path938"
       inkscape:connector-curvature="0" />
    <path
       style="fill:#dfc7a9;fill-opacity:1;stroke:none;stroke-width:0.96082759;stroke-linecap:round;stroke-miterlimit:4;stroke-dasharray:none;stroke-opacity:1"
       id="path922"
       sodipodi:type="arc"
       sodipodi:cx="105.52927"
       sodipodi:cy="188.90645"
       sodipodi:rx="9.5566959"
       sodipodi:ry="9.3927078"
       sodipodi:start="3.1415927"
       sodipodi:end="0"
       sodipodi:open="true"
       d="m 95.97257,188.90645 a 9.5566959,9.3927078 0 0 1 9.5567,-9.39271 9.5566959,9.3927078 0 0 1 9.55669,9.39271" />
    <path
       style="fill:#c7b095;fill-opacity:1;stroke:none;stroke-width:0.2576206;stroke-linecap:butt;stroke-linejoin:round;stroke-miterlimit:4;stroke-dasharray:none;stroke-opacity:1"
       d="m 109.33109,188.89725 c 0,0 2.78461,-1.51931 3.99743,-2.17562 1.09705,-0.65631 1.25693,-0.79694 1.25693,-0.79694 l 9.92311,-0.25784 c 0,0 -0.73873,2.41427 -3.39591,2.85962 -2.69026,0.31644 -5.24477,0.37153 -8.19052,0.37469 -2.99776,0.003 -3.59104,-0.004 -3.59104,-0.004 z"
       id="path924"
       inkscape:connector-curvature="0"
       sodipodi:nodetypes="cccccscc" />
    <path
       style="fill:none;fill-opacity:1;stroke:#000000;stroke-width:0.5;stroke-linecap:round;stroke-linejoin:round;stroke-miterlimit:4;stroke-dasharray:none;stroke-opacity:1"
       d="m 105.52932,179.51376 a 9.5566959,9.3927077 0 0 0 -9.55652,9.39271 h 19.11304 a 9.5566959,9.3927077 0 0 0 -5.1e-4,-0.0212 c 2.07996,-0.0319 4.01607,-0.12204 6.02754,-0.35864 2.65718,-0.44535 3.39565,-2.85977 3.39565,-2.85977 l -9.9229,0.25786 c 0,0 -0.006,0.004 -0.006,0.004 a 9.5566959,9.3927077 0 0 0 -9.05061,-6.41459 z"
       id="path930"
       inkscape:connector-curvature="0" />
    <rect
       style="fill:#000000;fill-opacity:1;stroke:none;stroke-width:0.5;stroke-linecap:butt;stroke-linejoin:round;stroke-miterlimit:4;stroke-dasharray:none;stroke-opacity:1"
       id="rect940"
       width="1.2402344"
       height="0.56223959"
       x="104.90915"
       y="178.82542" />
    <rect
       y="-123.86656"
       x="186.42522"
       height="2.7652326"
       width="0.80314845"
       id="rect942"
       style="fill:#040404;fill-opacity:1;stroke:none;stroke-width:0.42708349;stroke-miterlimit:4;stroke-dasharray:none;stroke-opacity:1"
       transform="rotate(90)" />
    <path
       style="fill:#040404;fill-opacity:1;stroke:none;stroke-width:0.2991966px;stroke-linecap:butt;stroke-linejoin:miter;stroke-opacity:1"
       d="m 107.64471,179.50377 2.44334,0.90604 v -0.89947 z"
       id="path948"
       inkscape:connector-curvature="0" />
    <path
       id="path958"
       d="m 126.39582,151.56953 v 11.43834 H 84.6627 v -11.43834 z"
       style="fill:#ffffff;fill-opacity:1;stroke:none;stroke-width:1.57058787;stroke-miterlimit:4;stroke-dasharray:none;stroke-opacity:1"
       inkscape:connector-curvature="0"
       inkscape:export-xdpi="38.950001"
       inkscape:export-ydpi="38.950001" />
    <path
       style="fill:#000000;fill-opacity:1;stroke:none;stroke-width:0.35385934;stroke-linecap:butt;stroke-linejoin:round;stroke-miterlimit:4;stroke-dasharray:none;stroke-opacity:1"
       d="m 92.80969,153.34275 -4.9289,5.97069 0.10284,0.31161 7.51117,1.87844 -0.80357,-2.44119 c 3.46999,-1.06051 7.22135,-1.53885 10.8412,-1.53686 v -3.64836 c -3.91901,0.0187 -8.18105,0.62242 -11.92538,1.88878 z m 25.44599,0 -0.79685,2.42311 c -3.74433,-1.26636 -8.00636,-1.87008 -11.92537,-1.88878 v 3.64836 c 3.61967,-0.002 7.37082,0.47645 10.84068,1.53686 l -0.80305,2.44119 7.51117,-1.87844 0.10283,-0.31161 z"
       id="rect970"
       inkscape:connector-curvature="0" />
    <path
       inkscape:connector-curvature="0"
       style="fill:#ffffff;fill-opacity:1;stroke:none;stroke-width:1.57058787;stroke-miterlimit:4;stroke-dasharray:none;stroke-opacity:1"
       d="m 69.11823,107.84713 h 11.43834 v 41.73313 H 69.11823 Z"
       id="path974"
       inkscape:export-xdpi="38.950001"
       inkscape:export-ydpi="38.950001" />
    <path
       inkscape:connector-curvature="0"
       style="fill:#000000;fill-opacity:1;stroke:none;stroke-width:0.13020718px;stroke-linecap:butt;stroke-linejoin:miter;stroke-opacity:1"
       d="m 70.54171,140.25646 4.13154,6.54798 h 0.3283 l 4.13154,-6.54798 h -4.13154 -0.3283 z"
       id="path976" />
    <rect
       y="73.013901"
       x="-140.64061"
       height="3.6482291"
       width="23.853804"
       id="rect978"
       style="fill:#000000;fill-opacity:1;stroke:none;stroke-width:0.5;stroke-linecap:butt;stroke-linejoin:round;stroke-miterlimit:4;stroke-dasharray:none;stroke-opacity:1"
       transform="rotate(-90)" />
    <path
       id="path980"
       d="m 70.54171,117.17091 4.13154,-6.54797 h 0.3283 l 4.13154,6.54797 h -4.13154 -0.3283 z"
       style="fill:#000000;fill-opacity:1;stroke:none;stroke-width:0.13020718px;stroke-linecap:butt;stroke-linejoin:miter;stroke-opacity:1"
       inkscape:connector-curvature="0" />
    <path
       inkscape:export-ydpi="38.950001"
       inkscape:export-xdpi="38.950001"
       inkscape:connector-curvature="0"
       style="fill:#ffffff;fill-opacity:1;stroke:none;stroke-width:1.57058787;stroke-miterlimit:4;stroke-dasharray:none;stroke-opacity:1"
       d="M 126.39582,91.773685 V 103.21202 H 84.6627 V 91.773685 Z"
       id="path891" />
    <path
       inkscape:export-ydpi="38.950001"
       inkscape:export-xdpi="38.950001"
       inkscape:connector-curvature="0"
       style="fill:#ffffff;fill-opacity:1;stroke:none;stroke-width:1.57058787;stroke-miterlimit:4;stroke-dasharray:none;stroke-opacity:1"
       d="m 126.39582,221.21642 v -11.4384 H 84.6627 v 11.4384 z"
       id="path917" />
    <path
       id="path919"
       d="m 92.80968,219.44319 -4.92889,-5.97073 0.10283,-0.31161 7.51117,-1.87845 -0.80357,2.44121 c 3.47,1.06052 7.22136,1.53886 10.8412,1.53687 v 3.64838 c -3.91901,-0.0187 -8.18104,-0.62243 -11.92537,-1.88879 z m 25.446,0 -0.79685,-2.42312 c -3.74433,1.26636 -8.00637,1.87009 -11.92537,1.88879 v -3.64838 c 3.61967,0.002 7.37081,-0.47645 10.84068,-1.53687 l -0.80305,-2.44121 7.51117,1.87845 0.10283,0.31161 z"
       style="fill:#000000;fill-opacity:1;stroke:none;stroke-width:0.35385934;stroke-linecap:butt;stroke-linejoin:round;stroke-miterlimit:4;stroke-dasharray:none;stroke-opacity:1"
       inkscape:connector-curvature="0" />
    <path
       inkscape:export-ydpi="38.950001"
       inkscape:export-xdpi="38.950001"
       inkscape:connector-curvature="0"
       style="fill:#ffffff;fill-opacity:1;stroke:none;stroke-width:1.57058787;stroke-miterlimit:4;stroke-dasharray:none;stroke-opacity:1"
       d="m 69.11841,165.52632 h 11.43834 v 41.73323 H 69.11841 Z"
       id="path921" />
    <path
       id="path923"
       d="m 70.89163,199.11252 5.9707,4.92892 0.3116,-0.10284 1.87844,-7.51121 -2.44119,0.80358 c -1.06051,-3.47002 -1.53885,-7.2214 -1.53686,-10.84125 h -3.64836 c 0.0187,3.91902 0.62242,8.18108 1.88878,11.92543 z m 0,-25.44605 2.42311,0.79685 c -1.26636,3.74433 -1.87008,8.00636 -1.88878,11.92537 h 3.64836 c -0.002,-3.61968 0.47645,-7.37082 1.53686,-10.84068 l 2.44119,0.80305 -1.87844,-7.51117 -0.3116,-0.10284 z"
       style="fill:#000000;fill-opacity:1;stroke:none;stroke-width:0.35385934;stroke-linecap:butt;stroke-linejoin:round;stroke-miterlimit:4;stroke-dasharray:none;stroke-opacity:1"
       inkscape:connector-curvature="0" />
    <path
       inkscape:export-ydpi="38.950001"
       inkscape:export-xdpi="38.950001"
       inkscape:connector-curvature="0"
       style="fill:#ffffff;fill-opacity:1;stroke:none;stroke-width:1.57058787;stroke-miterlimit:4;stroke-dasharray:none;stroke-opacity:1"
       d="m 140.88177,207.25942 h -11.43834 v -41.73311 h 11.43834 z"
       id="path925" />
    <path
       id="path927"
       d="m 139.10855,173.67329 -5.9707,-4.9289 -0.3116,0.10284 -1.87844,7.51117 2.44119,-0.80357 c 1.06051,3.47 1.53885,7.22136 1.53686,10.84119 h 3.64836 c -0.0187,-3.919 -0.62242,-8.18103 -1.88878,-11.92536 z m 0,25.44598 -2.42311,-0.79685 c 1.26636,-3.74433 1.87008,-8.00637 1.88878,-11.92536 h -3.64836 c 0.002,3.61966 -0.47645,7.37081 -1.53686,10.84067 l -2.44119,-0.80305 1.87844,7.51118 0.3116,0.10283 z"
       style="fill:#000000;fill-opacity:1;stroke:none;stroke-width:0.35385934;stroke-linecap:butt;stroke-linejoin:round;stroke-miterlimit:4;stroke-dasharray:none;stroke-opacity:1"
       inkscape:connector-curvature="0" />
    <g
       id="g4549"
       transform="translate(-69.016137,88.890085)">
      <path
         inkscape:connector-curvature="0"
         style="fill:#000000;fill-opacity:1;stroke:none;stroke-width:0.13020718px;stroke-linecap:butt;stroke-linejoin:miter;stroke-opacity:1"
         d="m 163.00263,4.3070767 -6.54798,4.13154 v 0.3283 l 6.54798,4.1315403 v -4.1315403 -0.3283 z"
         id="path4539" />
      <rect
         y="6.7792602"
         x="162.61848"
         height="3.6482291"
         width="23.853804"
         id="rect4542"
         style="fill:#000000;fill-opacity:1;stroke:none;stroke-width:0.5;stroke-linecap:butt;stroke-linejoin:round;stroke-miterlimit:4;stroke-dasharray:none;stroke-opacity:1" />
      <path
         id="path4544"
         d="m 186.08818,4.3070767 6.54797,4.13154 v 0.3283 l -6.54797,4.1315403 v -4.1315403 -0.3283 z"
         style="fill:#000000;fill-opacity:1;stroke:none;stroke-width:0.13020718px;stroke-linecap:butt;stroke-linejoin:miter;stroke-opacity:1"
         inkscape:connector-curvature="0" />
    </g>
    <path
       style="fill:none;stroke:#ff0121;stroke-width:0.98932737;stroke-linecap:round;stroke-linejoin:miter;stroke-miterlimit:4;stroke-dasharray:none;stroke-opacity:1"
       d="m 85.16714,258.55323 h 40.72425"
       id="path4553"
       inkscape:connector-curvature="0"
       inkscape:export-xdpi="38.957363"
       inkscape:export-ydpi="38.957363" />
    <path
       inkscape:connector-curvature="0"
       id="path4555"
       d="m 105.52926,278.90333 v -40.7002"
       style="fill:#18ff01;fill-opacity:1;stroke:#18ff01;stroke-width:0.98903513;stroke-linecap:round;stroke-linejoin:miter;stroke-miterlimit:4;stroke-dasharray:none;stroke-opacity:1"
       inkscape:export-xdpi="38.957363"
       inkscape:export-ydpi="38.957363" />
    <g
       id="g892"
       transform="translate(-68.92732,92.141887)"
       inkscape:export-xdpi="38.957363"
       inkscape:export-ydpi="38.957363">
      <path
         inkscape:export-ydpi="38.950001"
         inkscape:export-xdpi="38.950001"
         d="m 174.82028,160.02553 a 0.89296871,0.57209849 0 0 1 -0.88811,0.57209 0.89296871,0.57209849 0 0 1 -0.89778,-0.56587 0.89296871,0.57209849 0 0 1 0.87834,-0.57824 0.89296871,0.57209849 0 0 1 0.90733,0.55957"
         sodipodi:open="true"
         sodipodi:end="6.2614211"
         sodipodi:start="0"
         sodipodi:ry="0.57209849"
         sodipodi:rx="0.89296871"
         sodipodi:cy="160.02553"
         sodipodi:cx="173.92731"
         sodipodi:type="arc"
         id="path4621"
         style="opacity:1;fill:#000000;fill-opacity:1;stroke:none;stroke-width:0.53693724;stroke-linecap:round;stroke-linejoin:round;stroke-miterlimit:4;stroke-dasharray:none;stroke-dashoffset:0;stroke-opacity:1;paint-order:stroke markers fill" />
      <path
         inkscape:export-ydpi="38.950001"
         inkscape:export-xdpi="38.950001"
         inkscape:connector-curvature="0"
         id="path4604"
         d="m 173.75585,160.07013 a 10.517187,12.008229 0 0 0 -10.3451,12.13701 10.517187,12.008229 0 0 0 0.005,0.13752 12.435416,11.262377 0 0 1 10.30841,-5.26351 12.435416,11.262377 0 0 1 10.70891,5.25418 10.517187,12.008229 0 0 0 0.0114,-0.25872 l -0.003,-0.26104 A 10.517187,12.008229 0 0 0 173.7553,160.07013 Z"
         style="opacity:1;fill:#dfc7a9;fill-opacity:1;stroke:none;stroke-width:0.54823881;stroke-linecap:round;stroke-linejoin:round;stroke-miterlimit:4;stroke-dasharray:none;stroke-dashoffset:0;stroke-opacity:1;paint-order:stroke markers fill" />
      <path
         inkscape:export-ydpi="38.950001"
         inkscape:export-xdpi="38.950001"
         inkscape:connector-curvature="0"
         id="path4606"
         d="m 173.75581,166.73508 a 10.517187,6.1527033 0 0 0 -10.3451,6.21874 10.517187,6.1527033 0 0 0 0.0124,0.16537 12.236979,6.1527033 0 0 1 10.30428,-3.01067 12.236979,6.1527033 0 0 1 10.69754,3.00498 10.517187,6.1527033 0 0 0 0.0196,-0.22686 l -0.003,-0.13384 a 10.517187,6.1527033 0 0 0 -10.68617,-6.01772 z"
         style="opacity:1;fill:#c7b095;fill-opacity:1;stroke:none;stroke-width:0.39243096;stroke-linecap:round;stroke-linejoin:round;stroke-miterlimit:4;stroke-dasharray:none;stroke-dashoffset:0;stroke-opacity:1;paint-order:stroke markers fill" />
      <path
         inkscape:export-ydpi="38.950001"
         inkscape:export-xdpi="38.950001"
         sodipodi:nodetypes="cccccccccccccc"
         inkscape:connector-curvature="0"
         id="path4623"
         d="m 173.75527,160.06995 c -5.78524,0.10803 -10.40753,5.53134 -10.34459,12.13725 0.002,0.0458 0.003,0.0917 0.0127,0.18929 0.009,0.0976 -0.0126,0.32744 -0.0127,0.55743 0.003,0.0551 0.007,0.11028 0.0124,0.16536 2.16509,-1.83353 6.06397,-2.97269 10.30428,-3.01066 4.37832,-0.0328 8.45783,1.11313 10.69754,3.00498 0.009,-0.0755 0.0155,-0.15117 0.0196,-0.22686 l -0.003,-0.13384 c -0.009,-0.16388 -0.0291,-0.32748 -0.0164,-0.41564 0.0128,-0.0882 0.0165,-0.17446 0.0195,-0.2608 l -0.003,-0.26097 c -0.12581,-6.60467 -4.90047,-11.85292 -10.68565,-11.74554 z"
         style="opacity:1;fill:none;fill-opacity:1;stroke:#000000;stroke-width:0.5;stroke-linecap:round;stroke-linejoin:round;stroke-miterlimit:4;stroke-dasharray:none;stroke-dashoffset:0;stroke-opacity:1;paint-order:stroke markers fill" />
      <rect
         inkscape:export-ydpi="38.950001"
         inkscape:export-xdpi="38.950001"
         y="169.21544"
         x="168.32552"
         height="1.4423159"
         width="1.1008047"
         id="rect4629"
         style="fill:#040404;fill-opacity:1;stroke:none;stroke-width:0.36110574;stroke-miterlimit:4;stroke-dasharray:none;stroke-opacity:1" />
      <rect
         inkscape:export-ydpi="38.950001"
         inkscape:export-xdpi="38.950001"
         style="fill:#040404;fill-opacity:1;stroke:none;stroke-width:0.36110574;stroke-miterlimit:4;stroke-dasharray:none;stroke-opacity:1"
         id="rect4637"
         width="1.1008047"
         height="1.4423159"
         x="178.41098"
         y="169.21544" />
      <rect
         inkscape:export-ydpi="38.950001"
         inkscape:export-xdpi="38.950001"
         style="fill:#040404;fill-opacity:1;stroke:none;stroke-width:0.40816537;stroke-miterlimit:4;stroke-dasharray:none;stroke-opacity:1"
         id="rect4639"
         width="1.4282099"
         height="1.4203067"
         x="173.21321"
         y="160.60565" />
    </g>
  </g>
</svg>
