<?xml version="1.0" encoding="UTF-8" standalone="no"?>
<!-- Created with Inkscape (http://www.inkscape.org/) -->

<svg
   xmlns:osb="http://www.openswatchbook.org/uri/2009/osb"
   xmlns:dc="http://purl.org/dc/elements/1.1/"
   xmlns:cc="http://creativecommons.org/ns#"
   xmlns:rdf="http://www.w3.org/1999/02/22-rdf-syntax-ns#"
   xmlns:svg="http://www.w3.org/2000/svg"
   xmlns="http://www.w3.org/2000/svg"
   xmlns:sodipodi="http://sodipodi.sourceforge.net/DTD/sodipodi-0.dtd"
   xmlns:inkscape="http://www.inkscape.org/namespaces/inkscape"
   width="210mm"
   height="297mm"
   viewBox="0 0 210 297"
   version="1.1"
   id="svg8"
   inkscape:version="0.92.1 r15371"
   sodipodi:docname="icons.svg"
   inkscape:export-filename="A:\dev\tools\Irseny\resources\icons\icons.svg.png"
   inkscape:export-xdpi="38"
   inkscape:export-ydpi="38">
  <defs
     id="defs2">
    <linearGradient
       id="linearGradient5984"
       osb:paint="solid">
      <stop
         style="stop-color:#000000;stop-opacity:1;"
         offset="0"
         id="stop5982" />
    </linearGradient>
  </defs>
  <sodipodi:namedview
     id="base"
     pagecolor="#f4e1f5"
     bordercolor="#666666"
     borderopacity="1.0"
     inkscape:pageopacity="0"
     inkscape:pageshadow="2"
     inkscape:zoom="1"
     inkscape:cx="357.91937"
     inkscape:cy="422.86744"
     inkscape:document-units="mm"
     inkscape:current-layer="layer2"
     showgrid="false"
     showguides="true"
     inkscape:guide-bbox="true"
     inkscape:measure-start="623.437,838.937"
     inkscape:measure-end="619.812,841.25"
     inkscape:window-width="1920"
     inkscape:window-height="1024"
     inkscape:window-x="0"
     inkscape:window-y="0"
     inkscape:window-maximized="1"
     inkscape:snap-others="true"
     inkscape:snap-nodes="false">
    <sodipodi:guide
       position="27.996482,295.53329"
       orientation="1,0"
       id="guide5996"
       inkscape:locked="false" />
    <sodipodi:guide
       position="92.943164,257.49229"
       orientation="1,0"
       id="guide6016"
       inkscape:locked="false" />
    <sodipodi:guide
       position="179.58173,144.50261"
       orientation="1,0"
       id="guide1003"
       inkscape:locked="false" />
    <sodipodi:guide
       position="182.62192,181.85019"
       orientation="0,1"
       id="guide1006"
       inkscape:locked="false" />
    <sodipodi:guide
       position="168.3798,153.22562"
       orientation="1,0"
       id="guide70"
       inkscape:locked="false" />
    <sodipodi:guide
       position="172.08649,93.719728"
       orientation="0,1"
       id="guide4633"
       inkscape:locked="false" />
    <sodipodi:guide
       position="168.5435,94.9475"
       orientation="0,1"
       id="guide4635"
       inkscape:locked="false" />
  </sodipodi:namedview>
  <metadata
     id="metadata5">
    <rdf:RDF>
      <cc:Work
         rdf:about="">
        <dc:format>image/svg+xml</dc:format>
        <dc:type
           rdf:resource="http://purl.org/dc/dcmitype/StillImage" />
        <dc:title />
      </cc:Work>
    </rdf:RDF>
  </metadata>
  <g
     inkscape:label="test"
     inkscape:groupmode="layer"
     id="layer1" />
  <g
     inkscape:groupmode="layer"
     id="layer2"
     inkscape:label="v1">
    <circle
       style="fill:#000000;fill-opacity:1;stroke:none;stroke-width:0.26458332"
       id="path6021"
       cx="92.942978"
       cy="39.552631"
       r="39.221802"
       inkscape:export-xdpi="82.892677"
       inkscape:export-ydpi="82.892677" />
    <circle
       style="fill:none;fill-opacity:1;stroke:#fefefe;stroke-width:3;stroke-miterlimit:4;stroke-dasharray:none;stroke-opacity:1"
       id="path6025"
       cx="93.123383"
       cy="38.724094"
       r="31.150263" />
    <path
       style="fill:#000000;fill-opacity:1;stroke:none;stroke-width:11.33858299;stroke-miterlimit:4;stroke-dasharray:none;stroke-opacity:1"
       d="M 203.23242 145.65234 A 148.23988 148.23988 0 0 0 203.04102 149.49023 A 148.23988 148.23988 0 0 0 351.28125 297.73047 A 148.23988 148.23988 0 0 0 499.51953 149.49023 A 148.23988 148.23988 0 0 0 499.38281 145.65234 L 203.23242 145.65234 z "
       transform="scale(0.26458333)"
       id="rect6027" />
    <ellipse
       style="fill:#ffffff;fill-opacity:1;stroke:none;stroke-width:3.45326662;stroke-miterlimit:4;stroke-dasharray:none;stroke-opacity:1"
       id="path6029"
       cx="93.123383"
       cy="46.17886"
       rx="35.967796"
       ry="9.9777145" />
    <path
       style="fill:#000000;fill-opacity:1;stroke:none;stroke-width:14.26734352;stroke-miterlimit:4;stroke-dasharray:none;stroke-opacity:1"
       d="M 351.96289 152.82227 A 159.27581 38.461047 0 0 0 205.53125 176.17188 A 148.23988 148.23988 0 0 0 216.88086 211.62109 A 159.27581 38.461047 0 0 0 351.96289 229.74609 A 159.27581 38.461047 0 0 0 485.40234 212.2207 A 148.23988 148.23988 0 0 0 497.07812 175.54883 A 159.27581 38.461047 0 0 0 351.96289 152.82227 z "
       transform="scale(0.26458333)"
       id="ellipse6031" />
    <circle
       style="fill:#cbb4e6;fill-opacity:1;stroke:none;stroke-width:3;stroke-miterlimit:4;stroke-dasharray:none;stroke-opacity:1"
       id="path6033"
       cx="93.123383"
       cy="7.9480066"
       r="6.2674704" />
    <circle
       style="fill:#cbb4e6;fill-opacity:1;stroke:none;stroke-width:3;stroke-miterlimit:4;stroke-dasharray:none;stroke-opacity:1"
       id="circle6047"
       cx="70.898392"
       cy="40.227188"
       r="6.2674704" />
    <circle
       r="6.2674704"
       cy="40.227188"
       cx="115.34837"
       id="circle6051"
       style="fill:#cbb4e6;fill-opacity:1;stroke:none;stroke-width:3;stroke-miterlimit:4;stroke-dasharray:none;stroke-opacity:1" />
    <path
       style="fill:#ffffff;fill-opacity:1;stroke:none;stroke-width:3;stroke-miterlimit:4;stroke-dasharray:none;stroke-opacity:1"
       d="m 153.12689,19.167105 h 41.73313 v 41.733124 h -41.73313 z"
       id="rect60"
       inkscape:export-xdpi="38.950001"
       inkscape:export-ydpi="38.950001" />
    <path
       inkscape:connector-curvature="0"
       id="path920"
       d="m 153.63133,40.033667 h 40.72425"
       style="fill:none;stroke:#ff0121;stroke-width:0.98932737;stroke-linecap:round;stroke-linejoin:miter;stroke-miterlimit:4;stroke-dasharray:none;stroke-opacity:1" />
    <path
       style="fill:none;stroke:#0118ff;stroke-width:0.98903513;stroke-linecap:round;stroke-linejoin:miter;stroke-miterlimit:4;stroke-dasharray:none;stroke-opacity:1"
       d="M 173.99345,60.383765 V 19.683569"
       id="path916"
       inkscape:connector-curvature="0" />
    <rect
       style="fill:#c7b095;fill-opacity:1;stroke:none;stroke-width:2.0389595;stroke-miterlimit:4;stroke-dasharray:none;stroke-opacity:1"
       id="rect873"
       width="17.727083"
       height="7.4186096"
       x="165.12991"
       y="28.051041" />
    <ellipse
       style="fill:#c7b095;fill-opacity:1;stroke:none;stroke-width:3;stroke-miterlimit:4;stroke-dasharray:none;stroke-opacity:1"
       id="path878"
       cx="173.99345"
       cy="28.047358"
       rx="8.8635416"
       ry="6.0192709" />
    <path
       style="fill:#dfc7a9;fill-opacity:1;stroke:none;stroke-width:3;stroke-miterlimit:4;stroke-dasharray:none;stroke-opacity:1"
       d="M 184.11286,40.033667 A 10.119408,10.119408 0 0 1 173.99345,50.153075 10.119408,10.119408 0 0 1 163.87404,40.033667 10.119408,10.119408 0 0 1 173.99345,29.914259 10.119408,10.119408 0 0 1 184.11286,40.033667 Z"
       id="path871"
       inkscape:connector-curvature="0" />
    <rect
       style="fill:#040404;fill-opacity:1;stroke:none;stroke-width:0.5;stroke-miterlimit:4;stroke-dasharray:none;stroke-opacity:1"
       id="rect891"
       width="1.1008047"
       height="2.7652326"
       x="168.41902"
       y="23.10664" />
    <rect
       y="31.846159"
       x="173.27936"
       height="3.3264985"
       width="1.4282099"
       id="rect893"
       style="fill:#040404;fill-opacity:1;stroke:none;stroke-width:0.62465286;stroke-miterlimit:4;stroke-dasharray:none;stroke-opacity:1" />
    <rect
       style="fill:#040404;fill-opacity:1;stroke:none;stroke-width:0.5;stroke-miterlimit:4;stroke-dasharray:none;stroke-opacity:1"
       id="rect895"
       width="1.1008047"
       height="2.7652326"
       x="178.48972"
       y="23.10664" />
    <path
       style="fill:none;fill-opacity:1;stroke:#000000;stroke-width:1.8897638;stroke-miterlimit:4;stroke-dasharray:none;stroke-opacity:1"
       d="M 657.61328 83.255859 A 33.5 22.75 0 0 0 624.11328 106.00586 A 33.5 22.75 0 0 0 624.11328 106.01953 L 624.11328 132.86719 A 38.246581 38.246581 0 0 0 619.36719 151.30859 A 38.246581 38.246581 0 0 0 657.61328 189.55469 A 38.246581 38.246581 0 0 0 695.85938 151.30859 A 38.246581 38.246581 0 0 0 691.11328 132.9375 L 691.11328 106.01953 A 33.5 22.75 0 0 0 691.11328 106.00586 A 33.5 22.75 0 0 0 657.61328 83.255859 z "
       transform="scale(0.26458333)"
       id="rect905" />
    <circle
       style="fill:#080000;fill-opacity:1;stroke:none;stroke-width:0.5;stroke-miterlimit:4;stroke-dasharray:none;stroke-opacity:1"
       id="path914"
       cx="173.99345"
       cy="40.033669"
       r="1.0056016" />
    <path
       id="path918"
       d="m 153.12689,76.846302 h 41.73313 v 41.733178 h -41.73313 z"
       style="fill:#ffffff;fill-opacity:1;stroke:none;stroke-width:3;stroke-miterlimit:4;stroke-dasharray:none;stroke-opacity:1"
       inkscape:connector-curvature="0"
       inkscape:export-xdpi="38.950001"
       inkscape:export-ydpi="38.950001" />
    <path
       inkscape:connector-curvature="0"
       id="path936"
       d="M 173.99345,118.06302 V 77.362767"
       style="fill:none;stroke:#18ff01;stroke-width:0.98903513;stroke-linecap:round;stroke-linejoin:miter;stroke-miterlimit:4;stroke-dasharray:none;stroke-opacity:1" />
    <path
       style="fill:none;stroke:#0118ff;stroke-width:0.98903513;stroke-linecap:round;stroke-linejoin:miter;stroke-miterlimit:4;stroke-dasharray:none;stroke-opacity:1"
       d="m 153.64333,97.712891 h 40.70024"
       id="path938"
       inkscape:connector-curvature="0" />
    <path
       style="fill:#dfc7a9;fill-opacity:1;stroke:none;stroke-width:0.96082759;stroke-linecap:round;stroke-miterlimit:4;stroke-dasharray:none;stroke-opacity:1"
       id="path922"
       sodipodi:type="arc"
       sodipodi:cx="173.99345"
       sodipodi:cy="100.22642"
       sodipodi:rx="9.5566959"
       sodipodi:ry="9.3927078"
       sodipodi:start="3.1415927"
       sodipodi:end="0"
       sodipodi:open="true"
       d="m 164.43676,100.22642 a 9.5566959,9.3927078 0 0 1 9.55669,-9.39271 9.5566959,9.3927078 0 0 1 9.5567,9.39271" />
    <path
       style="fill:#c7b095;fill-opacity:1;stroke:none;stroke-width:0.2576206;stroke-linecap:butt;stroke-linejoin:round;stroke-miterlimit:4;stroke-dasharray:none;stroke-opacity:1"
       d="m 177.79528,100.21722 c 0,0 2.78461,-1.519314 3.99743,-2.17562 1.09705,-0.656307 1.25693,-0.796943 1.25693,-0.796943 l 9.92311,-0.257837 c 0,0 -0.73873,2.414274 -3.39591,2.859624 -2.69026,0.316436 -5.24477,0.371526 -8.19052,0.374686 -2.99776,0.003 -3.59104,-0.004 -3.59104,-0.004 z"
       id="path924"
       inkscape:connector-curvature="0"
       sodipodi:nodetypes="cccccscc" />
    <path
       style="fill:none;fill-opacity:1;stroke:#000000;stroke-width:0.5;stroke-linecap:round;stroke-linejoin:round;stroke-miterlimit:4;stroke-dasharray:none;stroke-opacity:1"
       d="m 173.99351,90.83373 a 9.5566959,9.3927077 0 0 0 -9.55652,9.39271 h 19.11304 a 9.5566959,9.3927077 0 0 0 -5.1e-4,-0.0212 c 2.07996,-0.0319 4.01607,-0.12204 6.02754,-0.358637 2.65718,-0.445352 3.39565,-2.859776 3.39565,-2.859776 l -9.9229,0.257866 c 0,0 -0.006,0.0036 -0.006,0.0036 a 9.5566959,9.3927077 0 0 0 -9.05061,-6.414595 z"
       id="path930"
       inkscape:connector-curvature="0" />
    <rect
       style="fill:#000000;fill-opacity:1;stroke:none;stroke-width:0.5;stroke-linecap:butt;stroke-linejoin:round;stroke-miterlimit:4;stroke-dasharray:none;stroke-opacity:1"
       id="rect940"
       width="1.2402344"
       height="0.56223959"
       x="173.37334"
       y="90.145393" />
    <rect
       y="-192.33075"
       x="97.745186"
       height="2.7652326"
       width="0.80314845"
       id="rect942"
       style="fill:#040404;fill-opacity:1;stroke:none;stroke-width:0.42708349;stroke-miterlimit:4;stroke-dasharray:none;stroke-opacity:1"
       transform="rotate(90)" />
    <path
       style="fill:#040404;fill-opacity:1;stroke:none;stroke-width:0.2991966px;stroke-linecap:butt;stroke-linejoin:miter;stroke-opacity:1"
       d="m 176.1089,90.82374 2.44334,0.906039 v -0.899473 z"
       id="path948"
       inkscape:connector-curvature="0" />
    <path
       id="path958"
       d="M 194.86001,62.889502 V 74.327836 H 153.12689 V 62.889502 Z"
       style="fill:#ffffff;fill-opacity:1;stroke:none;stroke-width:1.57058787;stroke-miterlimit:4;stroke-dasharray:none;stroke-opacity:1"
       inkscape:connector-curvature="0"
       inkscape:export-xdpi="38.950001"
       inkscape:export-ydpi="38.950001" />
    <path
       style="fill:#000000;fill-opacity:1;stroke:none;stroke-width:1.33742118;stroke-linecap:butt;stroke-linejoin:round;stroke-miterlimit:4;stroke-dasharray:none;stroke-opacity:1"
       d="M 609.53906 244.39453 L 590.91016 266.96094 L 591.29883 268.13867 L 619.6875 275.23828 L 616.65039 266.01172 C 629.76534 262.00349 643.94371 260.19561 657.625 260.20312 L 657.625 246.41406 C 642.813 246.48474 626.70453 248.76651 612.55273 253.55273 L 609.53906 244.39453 z M 705.71289 244.39453 L 702.70117 253.55273 C 688.54937 248.76651 672.4409 246.48474 657.62891 246.41406 L 657.62891 260.20312 C 671.30957 260.19562 685.48711 262.00387 698.60156 266.01172 L 695.56641 275.23828 L 723.95508 268.13867 L 724.34375 266.96094 L 705.71289 244.39453 z "
       id="rect970"
       transform="scale(0.26458333)" />
    <path
       inkscape:connector-curvature="0"
       style="fill:#ffffff;fill-opacity:1;stroke:none;stroke-width:1.57058787;stroke-miterlimit:4;stroke-dasharray:none;stroke-opacity:1"
       d="m 137.58242,19.167101 h 11.43834 v 41.733132 h -11.43834 z"
       id="path974"
       inkscape:export-xdpi="38.950001"
       inkscape:export-ydpi="38.950001" />
    <path
       inkscape:connector-curvature="0"
       style="fill:#000000;fill-opacity:1;stroke:none;stroke-width:0.13020718px;stroke-linecap:butt;stroke-linejoin:miter;stroke-opacity:1"
       d="m 139.0059,51.576433 4.13154,6.54798 h 0.3283 l 4.13154,-6.54798 h -4.13154 -0.3283 z"
       id="path976" />
    <rect
       y="141.47809"
       x="-51.960575"
       height="3.6482291"
       width="23.853804"
       id="rect978"
       style="fill:#000000;fill-opacity:1;stroke:none;stroke-width:0.5;stroke-linecap:butt;stroke-linejoin:round;stroke-miterlimit:4;stroke-dasharray:none;stroke-opacity:1"
       transform="rotate(-90)" />
    <path
       id="path980"
       d="m 139.0059,28.490885 4.13154,-6.547973 h 0.3283 l 4.13154,6.547973 h -4.13154 -0.3283 z"
       style="fill:#000000;fill-opacity:1;stroke:none;stroke-width:0.13020718px;stroke-linecap:butt;stroke-linejoin:miter;stroke-opacity:1"
       inkscape:connector-curvature="0" />
    <path
       inkscape:export-ydpi="38.950001"
       inkscape:export-xdpi="38.950001"
       inkscape:connector-curvature="0"
       style="fill:#ffffff;fill-opacity:1;stroke:none;stroke-width:1.57058787;stroke-miterlimit:4;stroke-dasharray:none;stroke-opacity:1"
       d="M 194.86001,3.0936556 V 14.531989 H 153.12689 V 3.0936556 Z"
       id="path891" />
    <path
       inkscape:export-ydpi="38.950001"
       inkscape:export-xdpi="38.950001"
       inkscape:connector-curvature="0"
       style="fill:#ffffff;fill-opacity:1;stroke:none;stroke-width:1.57058787;stroke-miterlimit:4;stroke-dasharray:none;stroke-opacity:1"
       d="m 194.86001,132.53639 v -11.4384 h -41.73312 v 11.4384 z"
       id="path917" />
    <path
       id="path919"
       d="m 161.27387,130.76316 -4.92889,-5.97073 0.10283,-0.31161 7.51117,-1.87845 -0.80357,2.44121 c 3.47,1.06052 7.22136,1.53886 10.8412,1.53687 v 3.64838 c -3.91901,-0.0187 -8.18104,-0.62243 -11.92537,-1.88879 z m 25.446,0 -0.79685,-2.42312 c -3.74433,1.26636 -8.00637,1.87009 -11.92537,1.88879 v -3.64838 c 3.61967,0.002 7.37081,-0.47645 10.84068,-1.53687 l -0.80305,-2.44121 7.51117,1.87845 0.10283,0.31161 z"
       style="fill:#000000;fill-opacity:1;stroke:none;stroke-width:0.35385934;stroke-linecap:butt;stroke-linejoin:round;stroke-miterlimit:4;stroke-dasharray:none;stroke-opacity:1"
       inkscape:connector-curvature="0" />
    <path
       inkscape:export-ydpi="38.950001"
       inkscape:export-xdpi="38.950001"
       inkscape:connector-curvature="0"
       style="fill:#ffffff;fill-opacity:1;stroke:none;stroke-width:1.57058787;stroke-miterlimit:4;stroke-dasharray:none;stroke-opacity:1"
       d="m 137.5826,76.846294 h 11.43834 V 118.57952 H 137.5826 Z"
       id="path921" />
    <path
       id="path923"
       d="m 139.35582,110.43249 5.9707,4.92892 0.3116,-0.10284 1.87844,-7.51121 -2.44119,0.80358 c -1.06051,-3.47002 -1.53885,-7.2214 -1.53686,-10.841248 h -3.64836 c 0.0187,3.919018 0.62242,8.181078 1.88878,11.925428 z m 0,-25.446052 2.42311,0.79685 c -1.26636,3.744331 -1.87008,8.006363 -1.88878,11.925369 h 3.64836 c -0.002,-3.619674 0.47645,-7.370815 1.53686,-10.84068 l 2.44119,0.80305 -1.87844,-7.511169 -0.3116,-0.102835 z"
       style="fill:#000000;fill-opacity:1;stroke:none;stroke-width:0.35385934;stroke-linecap:butt;stroke-linejoin:round;stroke-miterlimit:4;stroke-dasharray:none;stroke-opacity:1"
       inkscape:connector-curvature="0" />
    <path
       inkscape:export-ydpi="38.950001"
       inkscape:export-xdpi="38.950001"
       inkscape:connector-curvature="0"
       style="fill:#ffffff;fill-opacity:1;stroke:none;stroke-width:1.57058787;stroke-miterlimit:4;stroke-dasharray:none;stroke-opacity:1"
       d="M 209.34596,118.57939 H 197.90762 V 76.846276 h 11.43834 z"
       id="path925" />
    <path
       id="path927"
       d="m 207.57274,84.99326 -5.9707,-4.928896 -0.3116,0.102835 -1.87844,7.511169 2.44119,-0.803568 c 1.06051,3.469997 1.53885,7.221357 1.53686,10.841195 h 3.64836 c -0.0187,-3.919005 -0.62242,-8.181038 -1.88878,-11.925368 z m 0,25.44598 -2.42311,-0.79685 c 1.26636,-3.74433 1.87008,-8.00637 1.88878,-11.925355 h -3.64836 c 0.002,3.619655 -0.47645,7.370805 -1.53686,10.840665 l -2.44119,-0.80305 1.87844,7.51118 0.3116,0.10283 z"
       style="fill:#000000;fill-opacity:1;stroke:none;stroke-width:0.35385934;stroke-linecap:butt;stroke-linejoin:round;stroke-miterlimit:4;stroke-dasharray:none;stroke-opacity:1"
       inkscape:connector-curvature="0" />
    <rect
       style="opacity:1;fill:#ffffff;fill-opacity:0.99581587;stroke:none;stroke-width:0.26499999;stroke-miterlimit:4;stroke-dasharray:none;stroke-dashoffset:0;stroke-opacity:1"
       id="rect4537"
       width="9.3927097"
       height="45.640621"
       x="74.104416"
       y="94.039612"
       inkscape:export-xdpi="39.929611"
       inkscape:export-ydpi="39.929611" />
    <rect
       y="94.039612"
       x="95.245438"
       height="45.640621"
       width="9.3927097"
       id="rect4541"
       style="opacity:1;fill:#ffffff;fill-opacity:0.99581587;stroke:none;stroke-width:0.26499999;stroke-miterlimit:4;stroke-dasharray:none;stroke-dashoffset:0;stroke-opacity:1"
       inkscape:export-xdpi="39.929611"
       inkscape:export-ydpi="39.929611" />
    <g
       id="g4549"
       transform="translate(-0.55195,0.21005545)">
      <path
         inkscape:connector-curvature="0"
         style="fill:#000000;fill-opacity:1;stroke:none;stroke-width:0.13020718px;stroke-linecap:butt;stroke-linejoin:miter;stroke-opacity:1"
         d="m 163.00263,4.3070767 -6.54798,4.13154 v 0.3283 l 6.54798,4.1315403 v -4.1315403 -0.3283 z"
         id="path4539" />
      <rect
         y="6.7792602"
         x="162.61848"
         height="3.6482291"
         width="23.853804"
         id="rect4542"
         style="fill:#000000;fill-opacity:1;stroke:none;stroke-width:0.5;stroke-linecap:butt;stroke-linejoin:round;stroke-miterlimit:4;stroke-dasharray:none;stroke-opacity:1" />
      <path
         id="path4544"
         d="m 186.08818,4.3070767 6.54797,4.13154 v 0.3283 l -6.54797,4.1315403 v -4.1315403 -0.3283 z"
         style="fill:#000000;fill-opacity:1;stroke:none;stroke-width:0.13020718px;stroke-linecap:butt;stroke-linejoin:miter;stroke-opacity:1"
         inkscape:connector-curvature="0" />
    </g>
    <path
       inkscape:export-ydpi="38.950001"
       inkscape:export-xdpi="38.950001"
       id="path4551"
       d="m 153.12689,149.00664 h 41.73313 v 41.73312 h -41.73313 z"
       style="fill:#ffffff;fill-opacity:1;stroke:none;stroke-width:3;stroke-miterlimit:4;stroke-dasharray:none;stroke-opacity:1"
       inkscape:connector-curvature="0" />
    <path
       style="fill:none;stroke:#ff0121;stroke-width:0.98932737;stroke-linecap:round;stroke-linejoin:miter;stroke-miterlimit:4;stroke-dasharray:none;stroke-opacity:1"
       d="m 153.63133,169.8732 h 40.72425"
       id="path4553"
       inkscape:connector-curvature="0"
       inkscape:export-xdpi="38.950001"
       inkscape:export-ydpi="38.950001" />
    <path
       inkscape:connector-curvature="0"
       id="path4555"
       d="M 173.99345,190.2233 V 149.5231"
       style="fill:#18ff01;stroke:#18ff01;stroke-width:0.98903513;stroke-linecap:round;stroke-linejoin:miter;stroke-miterlimit:4;stroke-dasharray:none;stroke-opacity:1;fill-opacity:1"
       inkscape:export-xdpi="38.950001"
       inkscape:export-ydpi="38.950001" />
    <path
       style="opacity:1;fill:#dfc7a9;fill-opacity:1;stroke:none;stroke-width:0.5;stroke-linecap:round;stroke-linejoin:round;stroke-miterlimit:4;stroke-dasharray:none;stroke-dashoffset:0;stroke-opacity:1;paint-order:stroke markers fill"
       d="m 124.79666,140.09584 a 13.361458,13.096875 0 0 0 -13.14287,13.23795 13.361458,13.096875 0 0 0 0.0331,0.73484 18.241144,13.563928 0 0 1 13.00593,-4.30568 18.241144,13.563928 0 0 1 13.63741,4.3341 13.361458,13.096875 0 0 0 0.046,-0.90589 l -0.003,-0.28525 A 13.361458,13.096875 0 0 0 124.7968,140.09584 Z"
       id="path4584"
       inkscape:connector-curvature="0" />
    <path
       style="opacity:1;fill:#c7b095;fill-opacity:1;stroke:none;stroke-width:0.62362206;stroke-linecap:round;stroke-linejoin:round;stroke-miterlimit:4;stroke-dasharray:none;stroke-dashoffset:0;stroke-opacity:1;paint-order:stroke markers fill"
       d="M 471.90234 561.52344 A 76.499999 68.500002 0 0 0 471.25195 561.5293 A 76.499999 68.500002 0 0 0 413.48242 586.51953 L 414.22266 586.51953 A 95.499998 55.000002 0 0 1 470.94141 575.02734 A 95.499998 55.000002 0 0 1 530.77539 586.51953 L 531.50977 586.51953 A 76.499999 68.500002 0 0 0 471.90234 561.52344 z "
       id="path4573"
       transform="scale(0.26458333)" />
    <path
       style="opacity:1;fill:none;fill-opacity:1;stroke:#000000;stroke-width:1.8897638;stroke-linecap:round;stroke-linejoin:round;stroke-miterlimit:4;stroke-dasharray:none;stroke-dashoffset:0;stroke-opacity:1;paint-order:stroke markers fill"
       d="M 471.67188 529.49609 A 50.499999 49.5 0 0 0 422.01758 578.63477 A 76.499998 68.500001 0 0 0 413.48242 586.51953 L 414.22266 586.51953 A 95.499997 55.000001 0 0 1 470.94141 575.02734 A 95.499997 55.000001 0 0 1 530.77539 586.51953 L 531.50977 586.51953 A 76.499998 68.500001 0 0 0 522.99414 578.73828 L 522.98633 577.91211 A 50.499999 49.5 0 0 0 471.67383 529.49609 L 471.67188 529.49609 z "
       id="path4591"
       transform="scale(0.26458333)" />
    <rect
       style="opacity:1;fill:#000000;fill-opacity:1;stroke:none;stroke-width:0.5;stroke-linecap:round;stroke-linejoin:round;stroke-miterlimit:4;stroke-dasharray:none;stroke-dashoffset:0;stroke-opacity:1;paint-order:stroke markers fill"
       id="rect4596"
       width="1.7773422"
       height="2.3386083"
       x="69.143066"
       y="175.78731"
       transform="rotate(-15)" />
    <rect
       y="138.53523"
       x="123.93361"
       height="2.3386083"
       width="1.7773422"
       id="rect4598"
       style="opacity:1;fill:#000000;fill-opacity:1;stroke:none;stroke-width:0.5;stroke-linecap:round;stroke-linejoin:round;stroke-miterlimit:4;stroke-dasharray:none;stroke-dashoffset:0;stroke-opacity:1;paint-order:stroke markers fill" />
    <rect
       transform="rotate(15)"
       y="111.08665"
       x="170.67354"
       height="2.3386083"
       width="1.7773422"
       id="rect4600"
       style="opacity:1;fill:#000000;fill-opacity:1;stroke:none;stroke-width:0.5;stroke-linecap:round;stroke-linejoin:round;stroke-miterlimit:4;stroke-dasharray:none;stroke-dashoffset:0;stroke-opacity:1;paint-order:stroke markers fill" />
    <path
       style="opacity:1;fill:#000000;fill-opacity:1;stroke:none;stroke-width:0.53693724;stroke-linecap:round;stroke-linejoin:round;stroke-miterlimit:4;stroke-dasharray:none;stroke-dashoffset:0;stroke-opacity:1;paint-order:stroke markers fill"
       id="path4621"
       sodipodi:type="arc"
       sodipodi:cx="173.99345"
       sodipodi:cy="160.02553"
       sodipodi:rx="0.89296871"
       sodipodi:ry="0.57209849"
       sodipodi:start="0"
       sodipodi:end="6.2614211"
       sodipodi:open="true"
       d="m 174.88642,160.02553 a 0.89296871,0.57209849 0 0 1 -0.88811,0.57209 0.89296871,0.57209849 0 0 1 -0.89777,-0.56587 0.89296871,0.57209849 0 0 1 0.87834,-0.57824 0.89296871,0.57209849 0 0 1 0.90733,0.55957"
       inkscape:export-xdpi="38.950001"
       inkscape:export-ydpi="38.950001" />
    <path
       style="opacity:1;fill:#dfc7a9;fill-opacity:1;stroke:none;stroke-width:0.54823881;stroke-linecap:round;stroke-linejoin:round;stroke-miterlimit:4;stroke-dasharray:none;stroke-dashoffset:0;stroke-opacity:1;paint-order:stroke markers fill"
       d="m 173.822,160.07013 a 10.517187,12.008229 0 0 0 -10.3451,12.13701 10.517187,12.008229 0 0 0 0.005,0.13752 12.435416,11.262377 0 0 1 10.30841,-5.26351 12.435416,11.262377 0 0 1 10.70891,5.25418 10.517187,12.008229 0 0 0 0.0114,-0.25872 l -0.003,-0.26104 a 10.517187,12.008229 0 0 0 -10.68617,-11.74544 z"
       id="path4604"
       inkscape:connector-curvature="0"
       inkscape:export-xdpi="38.950001"
       inkscape:export-ydpi="38.950001" />
    <path
       style="opacity:1;fill:#c7b095;fill-opacity:1;stroke:none;stroke-width:0.39243096;stroke-linecap:round;stroke-linejoin:round;stroke-miterlimit:4;stroke-dasharray:none;stroke-dashoffset:0;stroke-opacity:1;paint-order:stroke markers fill"
       d="m 173.82196,166.73508 a 10.517187,6.1527033 0 0 0 -10.3451,6.21874 10.517187,6.1527033 0 0 0 0.0124,0.16537 12.236979,6.1527033 0 0 1 10.30428,-3.01067 12.236979,6.1527033 0 0 1 10.69754,3.00498 10.517187,6.1527033 0 0 0 0.0196,-0.22686 l -0.003,-0.13384 a 10.517187,6.1527033 0 0 0 -10.68617,-6.01772 z"
       id="path4606"
       inkscape:connector-curvature="0"
       inkscape:export-xdpi="38.950001"
       inkscape:export-ydpi="38.950001" />
    <path
       style="opacity:1;fill:none;fill-opacity:1;stroke:#000000;stroke-width:0.5;stroke-linecap:round;stroke-linejoin:round;stroke-miterlimit:4;stroke-dasharray:none;stroke-dashoffset:0;stroke-opacity:1;paint-order:stroke markers fill"
       d="m 173.82142,160.06995 c -5.78524,0.10803 -10.40753,5.53134 -10.34459,12.13725 0.002,0.0458 0.003,0.0917 0.0127,0.18929 0.009,0.0976 -0.0126,0.32744 -0.0127,0.55743 0.003,0.0551 0.007,0.11028 0.0124,0.16536 2.16509,-1.83353 6.06397,-2.97269 10.30428,-3.01066 4.37832,-0.0328 8.45783,1.11313 10.69754,3.00498 0.009,-0.0755 0.0155,-0.15117 0.0196,-0.22686 l -0.003,-0.13384 c -0.009,-0.16388 -0.0291,-0.32748 -0.0164,-0.41564 0.0128,-0.0882 0.0165,-0.17446 0.0195,-0.2608 l -0.003,-0.26097 c -0.12581,-6.60467 -4.90047,-11.85292 -10.68565,-11.74554 z"
       id="path4623"
       inkscape:connector-curvature="0"
       sodipodi:nodetypes="cccccccccccccc"
       inkscape:export-xdpi="38.950001"
       inkscape:export-ydpi="38.950001" />
    <rect
       style="fill:#040404;fill-opacity:1;stroke:none;stroke-width:0.36110574;stroke-miterlimit:4;stroke-dasharray:none;stroke-opacity:1"
       id="rect4629"
       width="1.1008047"
       height="1.4423159"
       x="168.39166"
       y="169.21544"
       inkscape:export-xdpi="38.950001"
       inkscape:export-ydpi="38.950001" />
    <rect
       y="169.21544"
       x="178.47713"
       height="1.4423159"
       width="1.1008047"
       id="rect4637"
       style="fill:#040404;fill-opacity:1;stroke:none;stroke-width:0.36110574;stroke-miterlimit:4;stroke-dasharray:none;stroke-opacity:1"
       inkscape:export-xdpi="38.950001"
       inkscape:export-ydpi="38.950001" />
    <rect
       y="160.60565"
       x="173.27936"
       height="1.4203067"
       width="1.4282099"
       id="rect4639"
       style="fill:#040404;fill-opacity:1;stroke:none;stroke-width:0.40816537;stroke-miterlimit:4;stroke-dasharray:none;stroke-opacity:1"
       inkscape:export-xdpi="38.950001"
       inkscape:export-ydpi="38.950001" />
  </g>
</svg>
