<?xml version="1.0" encoding="UTF-8" standalone="no"?>
<svg xmlns="http://www.w3.org/2000/svg" height="27.65mm" width="27.65mm" version="1.1" viewBox="0 0 27.647322 27.647322">
 <g transform="translate(29.26 23.52)">
  <rect stroke-linejoin="round" style="paint-order:markers fill stroke" fill-opacity="0" height="26.65" width="26.65" stroke="#000" stroke-linecap="round" y="-23.02" x="-28.76"/>
  <path d="m-26.68 1.368c1.458-0.6797 3.003 0.3179 4.496 0.3206 1.216 0.0022 2.428-0.8885 3.578-0.4751 0.983 0.3531 3.208-0.9514 4.67-0.06961 1.455 0.6379 3.061 0.1624 4.584 0.157 0.4698-0.02016 0.9411-0.02207 1.41 0.01572" stroke="#000" stroke-linecap="round" fill="none"/>
  <path style="paint-order:markers fill stroke" d="m-19.89-20.57a0.6615 2.953 60.35 0 0 -2.243 2.024 0.6615 2.953 60.35 0 1 -0.008 -0.0097l0.01253 0.022 0.2347 0.4123 0.01407 0.0247 0.01995 0.03503 0.2273 0.3992 0.0064 0.01122a0.6615 2.953 60.35 0 0 2.892 -0.8868 0.6615 2.953 60.35 0 0 2.24 -2.035l-0.0064-0.01122-0.2273-0.3992-0.01995-0.03503-0.01406-0.0247-0.2347-0.4123-0.01253-0.022a0.6615 2.953 60.35 0 1 0.0037 0.01277 0.6615 2.953 60.35 0 0 -2.884 0.8954zm-0.7011 4.737 0.5298 0.9305a0.6615 2.953 60.35 0 0 2.892 -0.8868 0.6615 2.953 60.35 0 0 2.24 -2.035l-0.5298-0.9305-0.0081 0.0046a0.6615 2.953 60.35 0 1 -2.251 1.996 0.6615 2.953 60.35 0 1 -2.868 0.9181zm0.811 1.424 6.641 11.66 0.0049-0.0028a0.6615 2.953 60.35 0 0 2.868 -0.9181 0.6615 2.953 60.35 0 0 2.251 -1.996l0.0081-0.0046-6.641-11.66-0.0081 0.0046a0.6615 2.953 60.35 0 1 -2.251 1.996 0.6615 2.953 60.35 0 1 -2.868 0.9181zm6.803 11.95 0.0041 0.0072 0.0081-0.0046a0.6615 2.953 60.35 0 1 -0.0072 -0.0055zm5.124-2.917a0.6615 2.953 60.35 0 1 -2.251 1.996 0.6615 2.953 60.35 0 1 -2.799 0.9618l4.332 2.78 0.9018-0.5134-0.1809-5.217 0.009-0.0051-0.0041-0.0072z" fill="#010101"/>
 </g>
</svg>
